<svg xmlns="http://www.w3.org/2000/svg" viewBox="-8 -8 1088 182">
  <path fill="#172033" fill-rule="evenodd" d="M0 0H126L158 31V69H132L117 31H31V69H126L158 100V136L126 166H0ZM31 100H123L132 109L117 136H31Z"/>
  <path fill="#172033" d="M168 38L218 0H340V31H230L188 69H168ZM168 99H188L230 136H340V166H217L168 121Z"/>
  <path fill="#172033" d="M416.5 41.248L451.732 41.248Q457.871 41.248 464.077 42.365Q470.283 43.482 475.221 46.833Q480.159 50.184 483.228 56.198Q486.297 62.212 486.297 72.178Q486.297 82.488 481.827 89.276Q477.356 96.063 470.016 98.985L470.016 99.328Q474.687 100.187 478.49 102.679Q482.294 105.171 485.03 109.037Q487.766 112.903 489.234 118.058Q490.702 123.213 490.702 129.056Q490.702 138.679 487.499 145.122Q484.296 151.566 479.224 155.518Q474.153 159.471 467.814 161.189Q461.475 162.907 455.202 162.907L416.5 162.907ZM437.319 89.877L452.4 89.877Q454.802 89.877 457.137 89.19Q459.473 88.503 461.341 86.956Q463.21 85.41 464.344 82.832Q465.478 80.255 465.478 76.646Q465.478 72.866 464.211 70.374Q462.943 67.883 460.941 66.508Q458.939 65.133 456.403 64.532Q453.868 63.93 451.465 63.93L437.319 63.93ZM437.319 140.225L456.003 140.225Q458.405 140.225 460.874 139.538Q463.343 138.85 465.345 137.132Q467.347 135.414 468.615 132.664Q469.882 129.915 469.882 125.963Q469.882 121.667 468.214 119.003Q466.546 116.34 464.01 114.965Q461.475 113.591 458.539 113.075Q455.603 112.56 453.067 112.56L437.319 112.56ZM561.834 148.473Q557.029 156.378 549.689 160.673Q542.349 164.969 534.475 164.969Q527.002 164.969 520.395 161.876Q513.789 158.783 508.918 153.027Q504.047 147.27 501.245 139.194Q498.442 131.118 498.442 121.151Q498.442 111.185 501.245 103.109Q504.047 95.032 508.918 89.276Q513.789 83.519 520.395 80.426Q527.002 77.333 534.475 77.333Q541.415 77.333 547.087 80.426Q552.759 83.519 556.696 89.276Q560.632 95.032 562.768 103.109Q564.903 111.185 564.903 121.151L564.903 129.228L518.46 129.228Q519.661 136.617 523.665 140.998Q527.669 145.38 533.541 145.38Q538.479 145.38 541.882 142.545Q545.285 139.71 547.821 135.242ZM544.885 111.7Q545.018 105.171 541.548 100.531Q538.078 95.892 532.607 95.892Q529.27 95.892 526.735 97.266Q524.199 98.641 522.397 100.789Q520.596 102.937 519.595 105.772Q518.594 108.607 518.46 111.7ZM621.222 100.016L603.605 100.016L603.605 127.853Q603.605 131.29 603.872 134.125Q604.139 136.96 605.073 139.022Q606.008 141.084 607.943 142.201Q609.878 143.318 613.081 143.318Q614.682 143.318 617.285 142.888Q619.887 142.459 621.222 140.912L621.222 162.392Q617.885 163.938 614.282 164.454Q610.678 164.969 607.209 164.969Q602.137 164.969 597.867 163.595Q593.596 162.22 590.393 159.213Q587.19 156.206 585.389 151.394Q583.587 146.583 583.587 139.71L583.587 100.016L570.775 100.016L570.775 79.395L583.587 79.395L583.587 54.651L603.605 54.651L603.605 79.395L621.222 79.395ZM675.538 100.016L657.922 100.016L657.922 127.853Q657.922 131.29 658.189 134.125Q658.456 136.96 659.39 139.022Q660.324 141.084 662.259 142.201Q664.194 143.318 667.397 143.318Q668.999 143.318 671.601 142.888Q674.204 142.459 675.538 140.912L675.538 162.392Q672.202 163.938 668.598 164.454Q664.995 164.969 661.525 164.969Q656.454 164.969 652.183 163.595Q647.913 162.22 644.71 159.213Q641.507 156.206 639.705 151.394Q637.904 146.583 637.904 139.71L637.904 100.016L625.092 100.016L625.092 79.395L637.904 79.395L637.904 54.651L657.922 54.651L657.922 79.395L675.538 79.395ZM747.071 148.473Q742.266 156.378 734.926 160.673Q727.586 164.969 719.712 164.969Q712.238 164.969 705.632 161.876Q699.026 158.783 694.155 153.027Q689.284 147.27 686.481 139.194Q683.679 131.118 683.679 121.151Q683.679 111.185 686.481 103.109Q689.284 95.032 694.155 89.276Q699.026 83.519 705.632 80.426Q712.238 77.333 719.712 77.333Q726.652 77.333 732.324 80.426Q737.996 83.519 741.932 89.276Q745.869 95.032 748.005 103.109Q750.14 111.185 750.14 121.151L750.14 129.228L703.697 129.228Q704.898 136.617 708.902 140.998Q712.906 145.38 718.778 145.38Q723.716 145.38 727.119 142.545Q730.522 139.71 733.058 135.242ZM730.122 111.7Q730.255 105.171 726.785 100.531Q723.315 95.892 717.844 95.892Q714.507 95.892 711.972 97.266Q709.436 98.641 707.634 100.789Q705.833 102.937 704.832 105.772Q703.831 108.607 703.697 111.7ZM762.284 79.395L782.303 79.395L782.303 92.799L782.57 92.799Q785.773 85.066 790.177 81.2Q794.581 77.333 801.254 77.333Q802.989 77.333 804.724 77.505Q806.458 77.677 807.926 78.193L807.926 101.734Q805.791 100.875 803.723 100.445Q801.654 100.016 799.385 100.016Q793.647 100.016 790.31 102.078Q786.974 104.14 785.172 107.834Q783.371 111.529 782.837 116.684Q782.303 121.839 782.303 128.025L782.303 162.907L762.284 162.907ZM880.927 72.866Q877.857 68.054 873.387 65.477Q868.916 62.899 863.044 62.899Q857.172 62.899 852.167 65.82Q847.163 68.742 843.492 73.983Q839.822 79.224 837.754 86.441Q835.685 93.658 835.685 102.078Q835.685 110.669 837.754 117.801Q839.822 124.932 843.426 130.173Q847.029 135.414 851.9 138.335Q856.771 141.256 862.376 141.256Q868.782 141.256 873.72 137.819Q878.658 134.383 881.861 128.197L899.21 144.865Q893.205 155.69 883.996 160.845Q874.788 166 865.046 166Q853.969 166 844.627 161.533Q835.285 157.065 828.479 148.731Q821.672 140.397 817.869 128.54Q814.065 116.684 814.065 102.078Q814.065 87.472 817.869 75.615Q821.672 63.758 828.479 55.424Q835.285 47.09 844.627 42.623Q853.969 38.155 865.046 38.155Q869.049 38.155 873.387 39.1Q877.724 40.045 881.928 42.107Q886.132 44.169 890.002 47.606Q893.872 51.043 896.942 56.026ZM948.723 152.425L948.456 152.425Q945.119 159.127 939.581 162.048Q934.042 164.969 927.903 164.969Q923.366 164.969 919.162 163.337Q914.958 161.704 911.755 158.44Q908.552 155.175 906.684 150.363Q904.816 145.552 904.816 139.194Q904.816 131.977 906.884 126.994Q908.953 122.011 912.489 118.746Q916.026 115.481 920.563 113.677Q925.101 111.872 929.972 111.013Q934.843 110.154 939.714 109.982Q944.585 109.81 948.723 109.81Q948.723 102.937 944.919 98.899Q941.116 94.861 935.911 94.861Q930.973 94.861 926.902 97.524Q922.832 100.187 919.629 104.827L908.953 90.737Q914.558 84.035 922.031 80.684Q929.505 77.333 937.512 77.333Q946.32 77.333 951.992 80.169Q957.664 83.004 961.067 88.503Q964.47 94.001 965.805 101.992Q967.139 109.982 967.139 120.464L967.139 162.907L948.723 162.907ZM943.785 126.306Q941.516 126.306 938.113 126.564Q934.71 126.822 931.573 128.025Q928.437 129.228 926.235 131.633Q924.033 134.039 924.033 138.335Q924.033 142.974 927.103 145.208Q930.172 147.442 933.509 147.442Q936.445 147.442 939.18 146.411Q941.916 145.38 944.052 143.49Q946.187 141.6 947.455 138.679Q948.723 135.757 948.723 131.805L948.723 126.306ZM979.951 33L999.97 33L999.97 162.907L979.951 162.907ZM1058.29 106.374Q1056.822 103.624 1054.153 101.82Q1051.484 100.016 1048.414 100.016Q1040.807 100.016 1036.603 105.858Q1032.399 111.7 1032.399 121.151Q1032.399 130.602 1036.603 136.445Q1040.807 142.287 1048.414 142.287Q1051.751 142.287 1054.153 140.397Q1056.555 138.507 1058.29 135.929L1071.502 153.8Q1066.831 159.986 1060.492 162.478Q1054.153 164.969 1048.414 164.969Q1040.941 164.969 1034.335 161.876Q1027.728 158.783 1022.857 153.027Q1017.986 147.27 1015.184 139.194Q1012.381 131.118 1012.381 121.151Q1012.381 111.185 1015.184 103.109Q1017.986 95.032 1022.857 89.276Q1027.728 83.519 1034.335 80.426Q1040.941 77.333 1048.414 77.333Q1054.153 77.333 1060.492 79.825Q1066.831 82.317 1071.502 88.503Z"/>
</svg>
